<svg xmlns="http://www.w3.org/2000/svg" xmlns:xlink="http://www.w3.org/1999/xlink" viewBox="0 0 498 338"><defs><style>.a{fill:url(#a);}.b{fill:#f3f3f3;}.b,.c,.d,.e{stroke:#213129;}.b,.c,.d{stroke-width:3px;}.c,.h{fill:none;}.d{fill:rgba(0,0,0,0);}.e,.f{fill:#213129;}.f{font-size:50px;font-family:TrebuchetMS-Bold, Trebuchet MS;font-weight:700;letter-spacing:0.01em;}.g{stroke:none;}.i{filter:url(#b);}</style><linearGradient id="a" x1="-0.082" y1="-0.17" x2="1.038" y2="1.081" gradientUnits="objectBoundingBox"><stop offset="0" stop-color="#abd8c1"/><stop offset="1" stop-color="#c8e6d7"/></linearGradient><filter id="b" x="0" y="0" width="498" height="338" filterUnits="userSpaceOnUse"><feOffset dy="3" input="SourceAlpha"/><feGaussianBlur stdDeviation="3" result="c"/><feFlood flood-opacity="0.161"/><feComposite operator="in" in2="c"/><feComposite in="SourceGraphic"/></filter></defs><g transform="translate(-453 -213)"><g class="i" transform="matrix(1, 0, 0, 1, 453, 213)"><rect class="a" width="480" height="320" rx="10" transform="translate(9 6)"/></g><g class="b" transform="translate(665 289)"><rect class="g" width="76" height="90" rx="10"/><rect class="h" x="1.5" y="1.5" width="73" height="87" rx="8.5"/></g><path class="c" d="M8,1.5H68A6.5,6.5,0,0,1,74.5,8V21A1.5,1.5,0,0,1,73,22.5H3A1.5,1.5,0,0,1,1.5,21V8A6.5,6.5,0,0,1,8,1.5Z" transform="translate(665 289)"/><g class="b" transform="translate(665 310)"><rect class="g" width="40" height="36"/><rect class="h" x="1.5" y="1.5" width="37" height="33"/></g><path class="d" d="M3,1.5H36A1.5,1.5,0,0,1,37.5,3V28A6.5,6.5,0,0,1,31,34.5H3A1.5,1.5,0,0,1,1.5,33V3A1.5,1.5,0,0,1,3,1.5Z" transform="translate(702 343)"/><g class="e" transform="translate(683 318)"><rect class="g" width="4" height="20" rx="2"/><rect class="h" x="0.5" y="0.5" width="3" height="19" rx="1.5"/></g><g class="e" transform="translate(695 326) rotate(90)"><rect class="g" width="4" height="20" rx="2"/><rect class="h" x="0.5" y="0.5" width="3" height="19" rx="1.5"/></g><g class="e" transform="translate(733 360) rotate(90)"><rect class="g" width="4" height="20" rx="2"/><rect class="h" x="0.5" y="0.5" width="3" height="19" rx="1.5"/></g><g class="e" transform="translate(693.502 367.637) rotate(135)"><rect class="g" width="4" height="20" rx="2"/><rect class="h" x="0.5" y="0.5" width="3" height="19" rx="1.5"/></g><g class="e" transform="translate(679.243 370.234) rotate(-135)"><rect class="g" width="4" height="20" rx="2"/><rect class="h" x="0.5" y="0.5" width="3" height="19" rx="1.5"/></g><g class="e" transform="translate(732 326) rotate(90)"><rect class="g" width="4" height="20" rx="2"/><rect class="h" x="0.5" y="0.5" width="3" height="19" rx="1.5"/></g><g class="e" transform="translate(720 353)"><circle class="g" cx="2.5" cy="2.5" r="2.5"/><circle class="h" cx="2.5" cy="2.5" r="2"/></g><g class="e" transform="translate(720 366)"><circle class="g" cx="2.5" cy="2.5" r="2.5"/><circle class="h" cx="2.5" cy="2.5" r="2"/></g><text class="f" transform="translate(581.768 446)"><tspan x="0" y="0">Calculator</tspan></text></g></svg>