<svg xmlns="http://www.w3.org/2000/svg" xmlns:xlink="http://www.w3.org/1999/xlink" viewBox="0 0 498 338"><defs><style>.a{fill:url(#a);}.b,.d{fill:#71c837;}.c{fill:none;stroke:#177f35;stroke-linejoin:round;stroke-width:20.768px;}.d{font-size:40px;font-family:SegoeUIBlack, Segoe UI;}.e{fill:#333;}.f{filter:url(#b);}</style><linearGradient id="a" x1="0.207" y1="0.061" x2="0.741" y2="0.871" gradientUnits="objectBoundingBox"><stop offset="0" stop-color="#eeecef"/><stop offset="1" stop-color="#e5e5e5"/></linearGradient><filter id="b" x="0" y="0" width="498" height="338" filterUnits="userSpaceOnUse"><feOffset dy="3" input="SourceAlpha"/><feGaussianBlur stdDeviation="3" result="c"/><feFlood flood-opacity="0.161"/><feComposite operator="in" in2="c"/><feComposite in="SourceGraphic"/></filter></defs><g transform="translate(-453 -213)"><g class="f" transform="matrix(1, 0, 0, 1, 453, 213)"><rect class="a" width="480" height="320" rx="10" transform="translate(9 6)"/></g><g transform="translate(1461.313 388.3)"><path class="b" d="M-749.2-91.9c-35.868,5.582-60.748,40.712-55.414,78.245s38.908,63.565,74.776,57.983a64.882,64.882,0,0,0,40.67-23.843l-11.26-8.731a51,51,0,0,1-31.479,18.016c-28.349,4.412-54.577-15.926-58.793-45.591s15.22-57.109,43.569-61.521A49.716,49.716,0,0,1-712-69.688l8.344-11.782A63.218,63.218,0,0,0-749.2-91.9Z" transform="translate(-13.023 0)"/><path class="c" d="M-724.637-61.514c25.042,2.079,43.731,25.006,41.745,51.21s-23.9,45.761-48.939,43.682-43.732-25.006-41.745-51.21,23.9-45.761,48.939-43.682Z" transform="translate(-23.627 -9.438)"/><text class="d" transform="translate(-697.829 9.293)"><tspan x="0" y="0">2</tspan></text><g transform="translate(-844.155 -76.839)"><path class="e" d="M-1271.035-190.151l2.712,1.968a.409.409,0,0,0,.667-.107l.044-.067a35.36,35.36,0,0,1,1.867-3.243c.808-1.22,2.043-1.9,4.714.038l2.183,1.584c2.691,1.953,2.48,3.409,1.686,4.606a34.849,34.849,0,0,1-2.248,2.966l-.044.067a.449.449,0,0,0,.138.691l2.713,1.968c.3.215.448.128.789-.15a12.544,12.544,0,0,0,2.439-2.828c2.7-4.08,2.407-8.367-2.446-11.889l-2.183-1.584c-4.853-3.521-8.794-2.31-11.5,1.771a12.976,12.976,0,0,0-1.676,3.381c-.129.432-.133.626.143.826Z" transform="translate(1284.399 198.202)"/><path class="e" d="M-1284.23-166.759a1.062,1.062,0,0,1,.129.029l15.857,3.24c2.568.516,3.81-1.127,4.783-3.48s1.268-4.424-.85-6.03l-13.112-9.877c-.047-.021-.061-.057-.108-.078a.408.408,0,0,0-.553.25l-1.772,4.284a.614.614,0,0,0,.245.7l3,2.183-1.823,4.408-3.577-.8a.565.565,0,0,0-.655.292l-1.782,4.309a.4.4,0,0,0,.215.568Zm9.882-3.376,1.229-2.972,5.51,3.936c.193.146.311.2.219.422s-.21.169-.444.122Z" transform="translate(1288.836 193.569)"/><path class="e" d="M-1290.226-137.9a.643.643,0,0,0,.293-.024l7.587-2.482a5.347,5.347,0,0,0,4.408,4.222l.405.08c4.637.917,6.74-2.155,7.631-7.087a52.554,52.554,0,0,0,.68-5.66c.024-1.149-.178-1.628-1.395-1.868L-1287.189-154a.543.543,0,0,0-.607.457l-.776,4.3a.541.541,0,0,0,.411.63l6.208,1.227c-.048.265-.226,1.109-.274,1.374l-.135.166-6.68,2.112c-.277.083-.55.138-.6.43l-.881,4.879a.414.414,0,0,0,.3.526ZM-1277-141.55c-1.191-.235-1.746-1.087-1.377-3.128.029-.159.325-1.8.375-1.931l4.029.8c-.029.159-.285,1.866-.318,2.052-.321,1.777-1.087,2.531-2.278,2.3Z" transform="translate(1290.864 184.74)"/><path class="e" d="M-1284.777-109.113l.335-.012a4.353,4.353,0,0,0,3.668-2.315,4.105,4.105,0,0,0,3.726,1.949l.438-.015c4.33-.151,5.406-3.645,5.236-8.958a45.532,45.532,0,0,0-.473-5.113c-.22-1.234-.595-1.653-1.986-1.6l-15.129.528c-1.392.049-1.739.493-1.9,1.767a42.363,42.363,0,0,0-.144,5.189c.138,4.315,1.26,8.758,6.234,8.584Zm7.2-5.651c-.9.032-1.639-.429-1.7-2.209l-.083-2.616,3.66-.128c.007.189.087,1.914.094,2.13.067,2.1-.557,2.773-1.562,2.808Zm-7.213.36c-1.108.039-1.877-.609-1.944-2.713l-.07-2.212,3.943-.138.083,2.616c.057,1.78-.749,2.4-1.78,2.438Z" transform="translate(1291.03 175.96)"/><path class="e" d="M-1276.719-83.159l2.572-.693c6.093-1.643,7.334-5.906,6.266-10.244s-4.123-7.443-10.216-5.8l-2.572.693c-6.093,1.643-7.309,5.9-6.241,10.237S-1282.813-81.516-1276.719-83.159Zm-1.325-5.383c-2.672.72-3.945.2-4.4-1.629s.424-2.929,3.1-3.649l2.572-.693c2.672-.72,3.97-.206,4.421,1.623s-.449,2.935-3.121,3.656Z" transform="translate(1289.764 168.393)"/><path class="e" d="M-1272.619-55.489l15.7-8.536a.554.554,0,0,0,.22-.728l-1.784-3.592a.506.506,0,0,0-.7-.23l-8.1,4.4c-.183.1-.23.064-.265-.008s-.014-.145.1-.327l5.481-9.154a1.248,1.248,0,0,0,.188-1.319l-1.57-3.161a.948.948,0,0,0-1.287-.426l-15.7,8.536a.579.579,0,0,0-.208.752l1.784,3.592a.506.506,0,0,0,.7.23l7.8-4.243c.16-.087.23-.064.266.008s.048.156-.065.339l-5.323,8.886a1.277,1.277,0,0,0-.118,1.342l1.594,3.209a.948.948,0,0,0,1.287.426Z" transform="translate(1287.532 161.791)"/><path class="e" d="M-1247.943-36.205l2.021-1.8c4.788-4.272,4.117-8.673,1.34-12.082s-6.824-4.8-11.612-.527l-2.021,1.8c-4.788,4.272-4.1,8.655-1.32,12.064s6.8,4.816,11.593.544Zm-3.446-4.23c-2.1,1.873-3.462,1.989-4.634.552s-.846-2.827,1.254-4.7l2.021-1.8c2.1-1.873,3.482-2.007,4.653-.57s.826,2.844-1.273,4.718Z" transform="translate(1281.197 154.056)"/><path class="e" d="M-1221.472-7.348l9.3-15.744a.556.556,0,0,0-.167-.743l-3.29-2.129a.5.5,0,0,0-.71.175l-4.8,8.125c-.109.184-.166.178-.232.136s-.082-.117-.075-.334l.227-10.8a1.229,1.229,0,0,0-.484-1.233l-2.9-1.873a.944.944,0,0,0-1.313.324l-9.3,15.744a.58.58,0,0,0,.189.757l3.29,2.129a.5.5,0,0,0,.71-.175l4.625-7.826c.095-.161.166-.178.232-.136s.118.108.111.326l-.223,10.485a1.249,1.249,0,0,0,.555,1.216l2.939,1.9a.944.944,0,0,0,1.313-.324Z" transform="translate(1272.33 147.548)"/><path class="e" d="M-1195.993,3.763l1.074-3.094a.548.548,0,0,0-.309-.692l-4.9-1.861c-.873-.332-1.067-.721-.723-1.71l.731-2.105,5.963,2.267a.511.511,0,0,0,.661-.323l1.039-2.993a.548.548,0,0,0-.309-.692l-5.963-2.267.643-1.851c.344-.989.731-1.158,1.6-.826l4.9,1.861a.511.511,0,0,0,.661-.323l1.074-3.094a.531.531,0,0,0-.309-.692,36.317,36.317,0,0,0-4.669-2.12c-3.1-1.179-6.478-1.573-8.177,3.322l-2.765,7.964c-1.708,4.92,1.13,6.861,4.232,8.04a35.9,35.9,0,0,0,4.88,1.511c.333.069.555-.019.661-.323Z" transform="translate(1262.601 143.16)"/><path class="e" d="M-1167.185,2.118l1.654-11.774a.56.56,0,0,0-.461-.616l-4.133-.636a.521.521,0,0,0-.585.455l-1.654,11.774c-.341,2.43-1.19,3.09-3,2.811s-2.417-1.163-2.076-3.592l1.654-11.774a.538.538,0,0,0-.435-.612l-4.133-.636a.543.543,0,0,0-.611.452L-1182.62-.257c-.908,6.461,2.608,8.338,6.614,8.954s7.915-.119,8.822-6.58Z" transform="translate(1254.712 141.631)"/><path class="e" d="M-1142.167-6.5l-.185-3.449a.525.525,0,0,0-.568-.48l-12.977.761a.51.51,0,0,0-.487.542l.185,3.449a.5.5,0,0,0,.542.482l3.914-.23.8,15.007a.527.527,0,0,0,.544.509l4.2-.246a.533.533,0,0,0,.486-.569l-.8-15.007,3.836-.225a.532.532,0,0,0,.513-.544Z" transform="translate(1245.863 141.005)"/><path class="e" d="M-1114.8,3.231a.709.709,0,0,0-.146-.267l-5.388-6.115a5.623,5.623,0,0,0,1.763-5.975l-.1-.418c-1.191-4.778-4.744-5.454-9.385-4.188a46.647,46.647,0,0,0-5.181,1.776c-1,.469-1.33.865-1.018,2.118L-1130,7.24a.537.537,0,0,0,.654.379l4.043-1.1a.544.544,0,0,0,.369-.658l-1.594-6.4c.25-.068,1.055-.26,1.3-.328l.2.057,4.681,5.416c.19.227.355.461.629.386l4.592-1.253a.413.413,0,0,0,.327-.507Zm-8.806-10.955c.306,1.227-.192,2.116-2.114,2.64-.15.041-1.7.463-1.828.471l-1.034-4.152c.15-.041,1.734-.529,1.909-.576,1.672-.456,2.651-.054,2.957,1.173Z" transform="translate(1238.48 142.18)"/><path class="e" d="M-1092.043-15.982l-1.209-2.475c-2.863-5.863-7.11-6.2-10.922-4.16s-6.041,5.836-3.177,11.7l1.209,2.475c2.863,5.863,7.1,6.174,10.911,4.136s6.052-5.812,3.189-11.675Zm-4.73,2.53c1.256,2.571,1.048,3.985-.559,4.845s-2.824.207-4.08-2.364l-1.209-2.475c-1.256-2.571-1.06-4.009.547-4.869s2.836-.183,4.091,2.388Z" transform="translate(1229.851 145.061)"/></g></g></g></svg>