<svg xmlns="http://www.w3.org/2000/svg" xmlns:xlink="http://www.w3.org/1999/xlink" viewBox="0 0 498 338"><defs><style>.a{fill:url(#a);}.b{fill:#fff;}.c{fill:rgba(255,255,255,0.8);font-size:40px;font-family:YuGothicUI-Semibold, Yu Gothic UI;font-weight:600;}.d{filter:url(#b);}</style><linearGradient id="a" x1="0.223" y1="0.342" x2="1.146" y2="1.118" gradientUnits="objectBoundingBox"><stop offset="0" stop-color="#2ad485"/><stop offset="1" stop-color="#97c109"/></linearGradient><filter id="b" x="0" y="0" width="498" height="338" filterUnits="userSpaceOnUse"><feOffset dy="3" input="SourceAlpha"/><feGaussianBlur stdDeviation="3" result="c"/><feFlood flood-opacity="0.161"/><feComposite operator="in" in2="c"/><feComposite in="SourceGraphic"/></filter></defs><g transform="translate(-453 -213)"><g class="d" transform="matrix(1, 0, 0, 1, 453, 213)"><rect class="a" width="480" height="320" rx="10" transform="translate(9 6)"/></g><path class="b" d="M567.083-338.607h-7.189a3.989,3.989,0,0,0-.61.061v-79.216a1.962,1.962,0,0,0-1.549-1.918L505.8-430.818h61.284Zm-11.72,18.473-9.84-2.111v-81.2a3.92,3.92,0,0,0-2.186-3.516l-42.291-20.861,54.317,11.65ZM537.682-309.7l-55.588-27.42v-91.309l55.588,27.421ZM571-438.659H478.174c-.02,0-.04.006-.06.006a3.883,3.883,0,0,0-.688.069c-.044.009-.085.022-.128.032a3.949,3.949,0,0,0-.558.173c-.044.017-.089.032-.133.051a3.82,3.82,0,0,0-.5.26c-.025.016-.047.035-.07.05-.047.031-.089.064-.133.1a3.908,3.908,0,0,0-.428.353c-.032.031-.066.059-.1.09a4.046,4.046,0,0,0-.413.5c-.031.044-.058.09-.086.135a3.88,3.88,0,0,0-.269.5c-.018.039-.039.075-.055.115a3.87,3.87,0,0,0-.2.628c-.012.056-.023.11-.032.166a3.863,3.863,0,0,0-.072.7v100.052a3.92,3.92,0,0,0,2.187,3.516l63.429,31.289a3.92,3.92,0,0,0,1.735.4,3.908,3.908,0,0,0,2.07-.591,3.921,3.921,0,0,0,1.851-3.33v-14.837l11.39,2.442a1.939,1.939,0,0,0,.411.044,1.953,1.953,0,0,0,1.231-.436,1.958,1.958,0,0,0,.729-1.525v-13.117a4,4,0,0,0,.61.061H571a3.922,3.922,0,0,0,3.922-3.921V-434.739a3.921,3.921,0,0,0-3.922-3.92" transform="translate(170 707.664)"/><text class="c" transform="translate(702 460)"><tspan x="-77.559" y="0">LIBRARY</tspan></text></g></svg>