<?xml version="1.0" encoding="UTF-8" standalone="no"?>
<!-- Created with Inkscape (http://www.inkscape.org/) -->

<svg
   xmlns:dc="http://purl.org/dc/elements/1.1/"
   xmlns:cc="http://creativecommons.org/ns#"
   xmlns:rdf="http://www.w3.org/1999/02/22-rdf-syntax-ns#"
   xmlns:svg="http://www.w3.org/2000/svg"
   xmlns="http://www.w3.org/2000/svg"
   xmlns:sodipodi="http://sodipodi.sourceforge.net/DTD/sodipodi-0.dtd"
   xmlns:inkscape="http://www.inkscape.org/namespaces/inkscape"
   width="1045.4442"
   height="1205.9047"
   viewBox="0 0 276.60711 319.0623"
   version="1.1"
   id="svg8"
   inkscape:version="0.92.3 (2405546, 2018-03-11)"
   sodipodi:docname="logo-white.svg">
  <defs
     id="defs2" />
  <sodipodi:namedview
     id="base"
     pagecolor="#ffffff"
     bordercolor="#666666"
     borderopacity="1.0"
     inkscape:pageopacity="0.0"
     inkscape:pageshadow="2"
     inkscape:zoom="0.3535534"
     inkscape:cx="1555.3011"
     inkscape:cy="580.52831"
     inkscape:document-units="mm"
     inkscape:current-layer="g823"
     showgrid="false"
     units="px"
     showborder="false"
     showguides="true"
     inkscape:guide-bbox="true"
     inkscape:object-nodes="true"
     inkscape:window-width="1920"
     inkscape:window-height="1017"
     inkscape:window-x="-8"
     inkscape:window-y="-8"
     inkscape:window-maximized="1"
     fit-margin-top="0"
     fit-margin-left="0"
     fit-margin-right="0"
     fit-margin-bottom="0" />
  <metadata
     id="metadata5">
    <rdf:RDF>
      <cc:Work
         rdf:about="">
        <dc:format>image/svg+xml</dc:format>
        <dc:type
           rdf:resource="http://purl.org/dc/dcmitype/StillImage" />
        <dc:title></dc:title>
      </cc:Work>
    </rdf:RDF>
  </metadata>
  <g
     inkscape:label="Layer 1"
     inkscape:groupmode="layer"
     id="layer1"
     transform="translate(703.59286,294.43818)">
    <g
       id="g823">
      <path
         inkscape:connector-curvature="0"
         id="path4753"
         d="m -552.35086,-128.77142 -14.54373,35.351174 c 12.21573,17.622428 32.56335,29.23799 55.50655,29.275813 19.08193,0.03146 36.39635,-7.950865 48.74604,-20.753022 l -18.87981,-18.296185 c -7.48799,7.795961 -18.0482,12.611871 -29.82261,12.59246 -21.86444,-0.03605 -39.48884,-16.72916 -41.00644,-38.17024 z"
         style="color:#000000;font-style:normal;font-variant:normal;font-weight:normal;font-stretch:normal;font-size:medium;line-height:normal;font-family:sans-serif;font-variant-ligatures:normal;font-variant-position:normal;font-variant-caps:normal;font-variant-numeric:normal;font-variant-alternates:normal;font-feature-settings:normal;text-indent:0;text-align:start;text-decoration:none;text-decoration-line:none;text-decoration-style:solid;text-decoration-color:#000000;letter-spacing:normal;word-spacing:normal;text-transform:none;writing-mode:lr-tb;direction:ltr;text-orientation:mixed;dominant-baseline:auto;baseline-shift:baseline;text-anchor:start;white-space:normal;shape-padding:0;clip-rule:nonzero;display:inline;overflow:visible;visibility:visible;opacity:1;isolation:auto;mix-blend-mode:normal;color-interpolation:sRGB;color-interpolation-filters:linearRGB;solid-color:#000000;solid-opacity:1;vector-effect:none;fill:#ffffff;fill-opacity:1;fill-rule:nonzero;stroke:none;stroke-width:26.45833588;stroke-linecap:butt;stroke-linejoin:miter;stroke-miterlimit:4;stroke-dasharray:none;stroke-dashoffset:0;stroke-opacity:1;color-rendering:auto;image-rendering:auto;shape-rendering:auto;text-rendering:auto;enable-background:accumulate" />
      <path
         inkscape:connector-curvature="0"
         id="path4751"
         d="m -528.79949,-199.60176 c -1.33633,0.37303 -2.65647,0.78642 -3.95891,1.23836 l 1.3e-4,-0.0791 -0.0161,0.0403 -2.77975,0.9876 -4.30253,1.845 -1.77055,1.01562 c -2.08985,1.08139 -4.11583,2.27029 -6.07322,3.55618 l -0.63107,0.37516 -1.98665,1.3858 -0.71667,0.56881 c -2.1109,1.5745 -4.12626,3.27058 -6.039,5.07449 l -0.86167,0.76029 -3.31296,3.43413 -1.1356,1.41458 c -4.2666,5.04576 -7.81175,10.71795 -10.47109,16.85564 l -0.46357,0.95834 -0.023,-0.11114 -27.40757,68.278918 -21.91198,-55.113978 -1.83505,-4.68648 c -22.0106,-56.83798 -15.36971,-44.5693 -48.89135,-46.26027 7.43411,16.66333 15.21681,33.21112 22.08411,50.06237 l 0.12768,0.29683 0.0313,0.0957 c 1.65782,4.07771 3.26059,8.17381 4.79185,12.29347 l 0.17499,0.43541 0.38784,1.08274 c 0.57212,1.23161 1.00102,2.15395 1.28126,3.0102 l 24.73989,60.655788 0.003,-0.0078 0.17611,0.363058 0.31755,0.485249 0.24131,0.31666 0.24053,0.175578 0.17763,0.08401 0.78017,0.398678 c 5.46864,1.784907 10.98508,2.654916 16.55221,2.687595 l 0.43201,7.12e-4 c 5.31484,-0.01006 10.67615,-0.77845 16.08749,-2.240011 0.80242,-0.216721 1.60619,-0.452468 2.41083,-0.699342 l 0.0766,-0.04379 0.32384,-0.217024 0.18589,-0.225522 0.0933,-0.169859 0.0928,-0.157463 c 0.2151,-0.526437 0.50602,-1.203952 0.71855,-1.725326 l 10.61073,-26.016612 21.11347,-52.340879 c 0.44329,-1.14441 0.93734,-2.26234 1.47624,-3.35345 l -0.0104,-0.008 z"
         style="color:#000000;font-style:normal;font-variant:normal;font-weight:normal;font-stretch:normal;font-size:medium;line-height:normal;font-family:sans-serif;font-variant-ligatures:normal;font-variant-position:normal;font-variant-caps:normal;font-variant-numeric:normal;font-variant-alternates:normal;font-feature-settings:normal;text-indent:0;text-align:start;text-decoration:none;text-decoration-line:none;text-decoration-style:solid;text-decoration-color:#000000;letter-spacing:normal;word-spacing:normal;text-transform:none;writing-mode:lr-tb;direction:ltr;text-orientation:mixed;dominant-baseline:auto;baseline-shift:baseline;text-anchor:start;white-space:normal;shape-padding:0;clip-rule:nonzero;display:inline;overflow:visible;visibility:visible;opacity:1;isolation:auto;mix-blend-mode:normal;color-interpolation:sRGB;color-interpolation-filters:linearRGB;solid-color:#000000;solid-opacity:1;vector-effect:none;fill:#ffffff;fill-opacity:1;fill-rule:nonzero;stroke:none;stroke-width:26.45833588;stroke-linecap:butt;stroke-linejoin:miter;stroke-miterlimit:4;stroke-dasharray:none;stroke-dashoffset:0;stroke-opacity:1;color-rendering:auto;image-rendering:auto;shape-rendering:auto;text-rendering:auto;enable-background:accumulate" />
      <path
         inkscape:connector-curvature="0"
         id="circle4524"
         d="m -511.16219,-201.01136 c -4.43451,-0.007 -8.77233,0.42129 -12.97543,1.24056 l -14.67706,35.676 0.0124,-0.0119 c 0.43169,-0.3864 0.87002,-0.7657 1.31806,-1.13367 0.001,-10e-4 0.003,-0.002 0.004,-0.003 l 1.59312,-1.23089 1.84958,-1.28318 0.37095,-0.26242 c 6.44753,-4.1515 14.15193,-6.54837 22.46213,-6.53467 11.83798,0.0195 22.43262,4.923 29.90163,12.81855 l 18.30499,-18.88911 c -12.27253,-12.53417 -29.34483,-20.35517 -48.16301,-20.38619 z"
         style="color:#000000;font-style:normal;font-variant:normal;font-weight:normal;font-stretch:normal;font-size:medium;line-height:normal;font-family:sans-serif;font-variant-ligatures:normal;font-variant-position:normal;font-variant-caps:normal;font-variant-numeric:normal;font-variant-alternates:normal;font-feature-settings:normal;text-indent:0;text-align:start;text-decoration:none;text-decoration-line:none;text-decoration-style:solid;text-decoration-color:#000000;letter-spacing:normal;word-spacing:normal;text-transform:none;writing-mode:lr-tb;direction:ltr;text-orientation:mixed;dominant-baseline:auto;baseline-shift:baseline;text-anchor:start;white-space:normal;shape-padding:0;clip-rule:nonzero;display:inline;overflow:visible;visibility:visible;opacity:1;isolation:auto;mix-blend-mode:normal;color-interpolation:sRGB;color-interpolation-filters:linearRGB;solid-color:#000000;solid-opacity:1;vector-effect:none;fill:#ffffff;fill-opacity:1;fill-rule:nonzero;stroke:none;stroke-width:26.45833588;stroke-linecap:butt;stroke-linejoin:miter;stroke-miterlimit:4;stroke-dasharray:none;stroke-dashoffset:0;stroke-opacity:1;color-rendering:auto;image-rendering:auto;shape-rendering:auto;text-rendering:auto;enable-background:accumulate" />
      <path
         inkscape:transform-center-x="3.4555712e-006"
         transform="matrix(-0.04460196,2.3505804,-2.3507354,-0.0446049,-863.71081,651.12758)"
         inkscape:transform-center-y="4.9174722e-005"
         d="m -302.26367,-63.685007 -66.46731,1.374856 -34.42432,-56.874949 32.043,-58.24981 66.46731,-1.37486 34.42431,56.87495 z"
         inkscape:randomized="0"
         inkscape:rounded="0"
         inkscape:flatsided="true"
         sodipodi:arg2="1.5501146"
         sodipodi:arg1="1.0265158"
         sodipodi:r2="33.240765"
         sodipodi:r1="66.481529"
         sodipodi:cy="-120.55996"
         sodipodi:cx="-336.68799"
         sodipodi:sides="6"
         id="path845"
         style="opacity:1;fill:none;fill-opacity:1;stroke:#ffffff;stroke-width:2.38188291;stroke-miterlimit:4;stroke-dasharray:none;stroke-opacity:1"
         sodipodi:type="star" />
    </g>
  </g>
</svg>
