<svg xmlns="http://www.w3.org/2000/svg" xmlns:xlink="http://www.w3.org/1999/xlink" viewBox="0 0 498 338"><defs><style>.a{fill:#00aced;}.b,.c{fill:#fff;stroke:#fff;}.b{font-size:60px;font-family:SegoeUI-Bold, Segoe UI;font-weight:700;}.d{filter:url(#a);}</style><filter id="a" x="0" y="0" width="498" height="338" filterUnits="userSpaceOnUse"><feOffset dy="3" input="SourceAlpha"/><feGaussianBlur stdDeviation="3" result="b"/><feFlood flood-opacity="0.161"/><feComposite operator="in" in2="b"/><feComposite in="SourceGraphic"/></filter></defs><g transform="translate(-462 -208)"><g class="d" transform="matrix(1, 0, 0, 1, 462, 208)"><rect class="a" width="480" height="320" rx="10" transform="translate(9 6)"/></g><text class="b" transform="translate(574.745 368)"><tspan x="0" y="0" xml:space="preserve">q  ote</tspan></text><text class="b" transform="translate(619.241 416)"><tspan x="0" y="0">machin</tspan></text><path class="c" d="M-3133.35-1817.96c-1.759-2.13-2.651-5.369-2.651-9.628V-1846h9.382v17.573a7.778,7.778,0,0,0,1.266,4.828,4.6,4.6,0,0,0,3.8,1.635v6.532a10.721,10.721,0,0,1-3.84.676C-3128.91-1814.76-3131.59-1815.84-3133.35-1817.96Zm26.806,2.464h-8.724v-6.984a4.68,4.68,0,0,0,3.779-3.6,14.8,14.8,0,0,0,.341-5.949h-7.349V-1846h11.954v30.5h0Z" transform="translate(3749.334 2183.612)"/><path class="c" d="M1265.29,617.453l14.906-.033v14.807h-5.8v1.867l.229,1.343.327.884.328.688.655.983,1.048.95,1.343.852,1.671.721,2.129.688,1.31.229-1.146,5.7-2.523-.12-2.317-.241-1.835-.459-1.9-.608-1.652-.782-1.336-.882-1.386-1.21-1.184-1.512-1.008-1.638-.806-1.991-.63-2.253-.378-2.636v-2.621Z" transform="translate(-438 -231)"/></g></svg>