<svg xmlns="http://www.w3.org/2000/svg" xmlns:xlink="http://www.w3.org/1999/xlink" viewBox="0 0 498 338"><defs><style>.a{fill:url(#a);}.b{fill:#fff;}.c{filter:url(#b);}</style><linearGradient id="a" x1="0.137" y1="0.246" x2="0.896" y2="0.934" gradientUnits="objectBoundingBox"><stop offset="0" stop-color="#d42a96"/><stop offset="1" stop-color="#ff4b12"/></linearGradient><filter id="b" x="0" y="0" width="498" height="338" filterUnits="userSpaceOnUse"><feOffset dy="3" input="SourceAlpha"/><feGaussianBlur stdDeviation="3" result="c"/><feFlood flood-opacity="0.161"/><feComposite operator="in" in2="c"/><feComposite in="SourceGraphic"/></filter></defs><g transform="translate(-453 -213)"><g class="c" transform="matrix(1, 0, 0, 1, 453, 213)"><rect class="a" width="480" height="320" rx="10" transform="translate(9 6)"/></g><path class="b" d="M3444.694,2225.019V2171.9h-21.406v-31.979h74.661V2171.9H3476.02v53.124Z" transform="translate(-2893 -1803.299)"/><path class="b" d="M3533.911,2225.162V2139.63h49a69.479,69.479,0,0,1,6.928.9,44.692,44.692,0,0,1,5.723,2.209c1.305.7,5.221,3.514,5.221,3.514l10.542,10.141,11.044,11.245s3.012,3.815,3.213,4.217l2.108,4.217s1.908,5.823,2.008,6.827,0,42.471,0,42.471l-31.628-.5-.5-35.041a10.5,10.5,0,0,0-1.205-2.711c-.8-1.2-14.559-14.157-14.559-14.157a29.5,29.5,0,0,0-4.117-1.606h-12.149v54.018Z" transform="translate(-2922.55 -1804)"/><path class="b" d="M3673.1,2139.568v86.017l49.73-.783,5.482-.914,4.307-1.827s4.568-2.349,5.221-2.872,7.048-6.265,7.048-6.265l7.962-8.093V2224.8s34.981.391,37.461,0,9.92-3.655,10.573-4.307,8.354-7.571,9.529-8.745,15.4-15.924,15.4-15.924a51.927,51.927,0,0,0,3.133-4.569,73.357,73.357,0,0,0,2.872-7.57,14.046,14.046,0,0,0,.628-2.6v-41.56H3800.7v33.056a9.853,9.853,0,0,1-.309,1.622,16.257,16.257,0,0,1-2.24,3.862l-4.711,4.634-6.874,6.719-2.935,2.471-2.394,1.158h-17.455s2.317-4.016,2.7-5.02,1.854-6.024,1.854-6.024v-42.479h-31.512v33.056a7.117,7.117,0,0,1-.541,2.935,42.911,42.911,0,0,1-4.094,5.175l-4.711,4.4-5.1,4.943a37.891,37.891,0,0,1-4.248,2.626c-.541.077-3.244.386-3.244.386h-10.35v-53.524Z" transform="translate(-2959.507 -1803.208)"/></g></svg>