<svg xmlns="http://www.w3.org/2000/svg" xmlns:xlink="http://www.w3.org/1999/xlink" viewBox="0 0 498 338"><defs><style>.a{fill:url(#a);}.b,.e,.f{fill:#fff;}.b{font-size:58px;font-family:TrebuchetMS-Bold, Trebuchet MS;font-weight:700;letter-spacing:0.01em;}.c,.h{fill:none;}.c,.f{stroke:#fff;}.c{stroke-width:7px;}.d{fill:#ebebeb;}.g{stroke:none;}.i{filter:url(#b);}</style><linearGradient id="a" x1="0.678" y1="-0.225" x2="0.315" y2="1.159" gradientUnits="objectBoundingBox"><stop offset="0" stop-color="#315ebe" stop-opacity="0.702"/><stop offset="1" stop-color="#315ebe" stop-opacity="0.8"/></linearGradient><filter id="b" x="0" y="0" width="498" height="338" filterUnits="userSpaceOnUse"><feOffset dy="3" input="SourceAlpha"/><feGaussianBlur stdDeviation="3" result="c"/><feFlood flood-opacity="0.161"/><feComposite operator="in" in2="c"/><feComposite in="SourceGraphic"/></filter></defs><g transform="translate(-453 -213)"><g class="i" transform="matrix(1, 0, 0, 1, 453, 213)"><rect class="a" width="480" height="320" rx="10" transform="translate(9 6)"/></g><text class="b" transform="translate(561 400)"><tspan x="0" y="0" xml:space="preserve">TOD   L ST</tspan></text><g class="c" transform="translate(675 357)"><ellipse class="g" cx="19.5" cy="21.5" rx="19.5" ry="21.5"/><ellipse class="h" cx="19.5" cy="21.5" rx="16" ry="18"/></g><rect class="d" width="7" height="21" transform="matrix(0.616, -0.788, 0.788, 0.616, 682.011, 376.872)"/><rect class="d" width="7" height="36" transform="matrix(-0.766, -0.643, 0.643, -0.766, 699.271, 390.788)"/><rect class="e" width="10" height="33" transform="translate(764 359)"/><path class="f" d="M4030,2493.53h7.5l-3.619-4.608Z" transform="translate(4802.796 2888.297) rotate(180)"/></g></svg>