<?xml version="1.0" encoding="UTF-8" standalone="no"?>
<svg
   xmlns:dc="http://purl.org/dc/elements/1.1/"
   xmlns:cc="http://creativecommons.org/ns#"
   xmlns:rdf="http://www.w3.org/1999/02/22-rdf-syntax-ns#"
   xmlns:svg="http://www.w3.org/2000/svg"
   xmlns="http://www.w3.org/2000/svg"
   xmlns:xlink="http://www.w3.org/1999/xlink"
   width="208.74385mm"
   height="184.7386mm"
   viewBox="0 0 208.74385 184.73861"
   version="1.1"
   id="svg8">
  <defs
     id="defs2">
    <linearGradient
       id="linearGradient2109">
      <stop
         style="stop-color:#40a9ff;stop-opacity:0.863"
         offset="0"
         id="stop2105" />
      <stop
         id="stop2115"
         offset="0.43080029"
         style="stop-color:#1890ff;stop-opacity:0.891" />
      <stop
         id="stop2113"
         offset="0.61574537"
         style="stop-color:#096dd9;stop-opacity:0.875" />
      <stop
         style="stop-color:#1a4ec4;stop-opacity:0.835"
         offset="0.71455157"
         id="stop2117" />
      <stop
         style="stop-color:#2b32b2;stop-opacity:0.92857143"
         offset="1"
         id="stop2107" />
    </linearGradient>
    <linearGradient
       gradientTransform="translate(-1711.9158,-163.17382)"
       xlink:href="#linearGradient2109"
       id="linearGradient2111"
       x1="1711.916"
       y1="512.28613"
       x2="2501.3398"
       y2="512.28613"
       gradientUnits="userSpaceOnUse" />
  </defs>
  <metadata
     id="metadata5">
    <rdf:RDF>
      <cc:Work
         rdf:about="">
        <dc:format>image/svg+xml</dc:format>
        <dc:type
           rdf:resource="http://purl.org/dc/dcmitype/StillImage" />
        <dc:title></dc:title>
      </cc:Work>
    </rdf:RDF>
  </metadata>
  <g
     id="layer1"
     transform="translate(-453.06898,-43.173075)">
    <path
       id="path831"
       transform="matrix(0.26458334,0,0,0.26458334,452.94444,43.173075)"
       d="m 110.78125,0 -83.757812,5.9667969 33.060546,64.4003911 9.822266,18.179687 30.59961,56.625005 10.15234,18.78906 18.53321,35.01172 0.31445,-0.13477 86.32422,159.75 L 385.22266,672.0625 432.88477,596.07031 298.23828,346.9043 120.48438,17.962891 l -0.0117,-0.002 -1.72266,-3.191407 -3.38086,-6.2656248 -0.0137,0.021484 z M 20.216797,6.4511719 0.47070312,7.8574219 34.195312,74.052734 l 10.111329,18.857422 31.503906,58.740234 10.453125,19.49219 19.082028,36.31836 0.32227,-0.13867 88.87695,165.71679 174.39844,325.18555 12.81055,-20.57813 z M 688.14062,12.580078 558.67969,222.73438 l -169.7168,275.50781 41.70703,77.4707 0.6836,-1.11133 6.12695,11.36524 175.97265,-285.25586 175.97071,-285.255862 -89.53516,-2.611328 -0.0488,0.07813 z"
       style="opacity:0.92900002;fill:url(#linearGradient2111);fill-opacity:1;stroke:none;stroke-width:0;stroke-linecap:butt;stroke-linejoin:round;stroke-miterlimit:4;stroke-dasharray:none;stroke-opacity:0.94117647" />
  </g>
</svg>
